<mxfile host="app.diagrams.net" modified="2022-05-14T11:06:06.986Z" agent="5.0 (Windows NT 6.1; Win64; x64) AppleWebKit/537.36 (KHTML, like Gecko) Chrome/101.0.4951.67 Safari/537.36" etag="hVcEvGLiKeIlvKhgPf7T" version="18.0.4" type="github">
  <diagram id="979D2GkDzh6TF1tMnSZK" name="Page-1">
    <mxGraphModel dx="868" dy="450" grid="1" gridSize="10" guides="1" tooltips="1" connect="1" arrows="1" fold="1" page="1" pageScale="1" pageWidth="827" pageHeight="1169" math="0" shadow="0">
      <root>
        <mxCell id="0" />
        <mxCell id="1" parent="0" />
        <mxCell id="21N-k8chx8FWT6o2VpNl-9" value="" style="whiteSpace=wrap;html=1;aspect=fixed;" vertex="1" parent="1">
          <mxGeometry x="220" y="20" width="370" height="370" as="geometry" />
        </mxCell>
        <mxCell id="21N-k8chx8FWT6o2VpNl-15" value="" style="edgeStyle=orthogonalEdgeStyle;rounded=0;orthogonalLoop=1;jettySize=auto;html=1;" edge="1" parent="1" source="21N-k8chx8FWT6o2VpNl-2" target="21N-k8chx8FWT6o2VpNl-14">
          <mxGeometry relative="1" as="geometry" />
        </mxCell>
        <mxCell id="21N-k8chx8FWT6o2VpNl-17" value="" style="edgeStyle=orthogonalEdgeStyle;rounded=0;orthogonalLoop=1;jettySize=auto;html=1;" edge="1" parent="1" source="21N-k8chx8FWT6o2VpNl-2" target="21N-k8chx8FWT6o2VpNl-16">
          <mxGeometry relative="1" as="geometry" />
        </mxCell>
        <mxCell id="21N-k8chx8FWT6o2VpNl-19" value="" style="edgeStyle=orthogonalEdgeStyle;rounded=0;orthogonalLoop=1;jettySize=auto;html=1;" edge="1" parent="1" source="21N-k8chx8FWT6o2VpNl-2" target="21N-k8chx8FWT6o2VpNl-18">
          <mxGeometry relative="1" as="geometry" />
        </mxCell>
        <mxCell id="21N-k8chx8FWT6o2VpNl-2" value="Estudiante" style="shape=umlActor;verticalLabelPosition=bottom;verticalAlign=top;html=1;outlineConnect=0;" vertex="1" parent="1">
          <mxGeometry x="120" y="90" width="50" height="100" as="geometry" />
        </mxCell>
        <mxCell id="21N-k8chx8FWT6o2VpNl-14" value="Consulta notas" style="ellipse;whiteSpace=wrap;html=1;verticalAlign=top;" vertex="1" parent="1">
          <mxGeometry x="300" y="40" width="120" height="60" as="geometry" />
        </mxCell>
        <mxCell id="21N-k8chx8FWT6o2VpNl-16" value="Consulta prÃ¡cticas" style="ellipse;whiteSpace=wrap;html=1;verticalAlign=top;" vertex="1" parent="1">
          <mxGeometry x="294" y="110" width="120" height="60" as="geometry" />
        </mxCell>
        <mxCell id="21N-k8chx8FWT6o2VpNl-18" value="Actualiza datos personales" style="ellipse;whiteSpace=wrap;html=1;verticalAlign=top;" vertex="1" parent="1">
          <mxGeometry x="230" y="180" width="120" height="60" as="geometry" />
        </mxCell>
        <mxCell id="21N-k8chx8FWT6o2VpNl-23" value="" style="edgeStyle=orthogonalEdgeStyle;rounded=0;orthogonalLoop=1;jettySize=auto;html=1;" edge="1" parent="1" source="21N-k8chx8FWT6o2VpNl-21" target="21N-k8chx8FWT6o2VpNl-22">
          <mxGeometry relative="1" as="geometry" />
        </mxCell>
        <mxCell id="21N-k8chx8FWT6o2VpNl-25" value="" style="edgeStyle=orthogonalEdgeStyle;rounded=0;orthogonalLoop=1;jettySize=auto;html=1;" edge="1" parent="1" source="21N-k8chx8FWT6o2VpNl-21" target="21N-k8chx8FWT6o2VpNl-24">
          <mxGeometry relative="1" as="geometry">
            <Array as="points">
              <mxPoint x="655" y="140" />
              <mxPoint x="480" y="140" />
            </Array>
          </mxGeometry>
        </mxCell>
        <mxCell id="21N-k8chx8FWT6o2VpNl-21" value="Docente" style="shape=umlActor;verticalLabelPosition=bottom;verticalAlign=top;html=1;outlineConnect=0;" vertex="1" parent="1">
          <mxGeometry x="640" y="50" width="30" height="60" as="geometry" />
        </mxCell>
        <mxCell id="21N-k8chx8FWT6o2VpNl-22" value="Registra notas" style="ellipse;whiteSpace=wrap;html=1;verticalAlign=top;" vertex="1" parent="1">
          <mxGeometry x="440" y="40" width="120" height="60" as="geometry" />
        </mxCell>
        <mxCell id="21N-k8chx8FWT6o2VpNl-24" value="Registra asistencia" style="ellipse;whiteSpace=wrap;html=1;verticalAlign=top;" vertex="1" parent="1">
          <mxGeometry x="420" y="180" width="120" height="60" as="geometry" />
        </mxCell>
      </root>
    </mxGraphModel>
  </diagram>
</mxfile>
